<?xml version="1.0" standalone="no"?>
<!DOCTYPE svg PUBLIC "-//W3C//DTD SVG 20010904//EN"
 "http://www.w3.org/TR/2001/REC-SVG-20010904/DTD/svg10.dtd">
<svg version="1.0" xmlns="http://www.w3.org/2000/svg"
 width="700.000000pt" height="700.000000pt" viewBox="0 0 700.000000 700.000000"
 preserveAspectRatio="xMidYMid meet">
<metadata>
Created by potrace 1.11, written by Peter Selinger 2001-2013
</metadata>
<g transform="translate(0.000000,700.000000) scale(0.100000,-0.100000)"
fill="#000000" stroke="none">
<path d="M3410 6192 c-36 -2 -144 -18 -190 -27 -79 -15 -209 -62 -305 -110
-536 -270 -819 -865 -689 -1450 59 -268 216 -530 418 -700 32 -28 71 -61 86
-75 l28 -25 -24 -100 c-43 -178 -75 -320 -78 -340 -2 -11 -8 -38 -14 -60 -12
-44 -52 -216 -77 -335 -9 -41 -18 -82 -20 -90 -10 -40 -76 -329 -81 -354 -2
-16 -7 -32 -9 -36 -2 -3 -6 -17 -8 -31 -3 -13 -30 -132 -60 -264 -31 -132 -58
-251 -61 -265 -2 -14 -16 -74 -31 -135 -14 -60 -28 -119 -30 -130 -21 -95 -60
-265 -75 -330 -29 -125 -120 -522 -120 -526 0 -6 2848 -5 2853 1 5 5 -16 109
-68 335 -15 66 -28 126 -30 135 -2 8 -20 87 -40 175 -20 88 -38 171 -41 185
-3 14 -11 52 -19 85 -7 33 -28 123 -45 200 -17 77 -38 167 -45 200 -8 33 -46
204 -86 380 -39 176 -72 325 -73 330 -1 6 -8 37 -15 70 -7 33 -16 74 -21 90
-5 17 -11 41 -14 55 -2 14 -13 67 -25 118 -67 296 -66 291 -76 342 -3 14 -20
89 -38 167 l-33 142 60 50 c248 205 397 447 465 756 24 109 35 328 20 410 -36
203 -54 267 -110 390 -12 28 -23 52 -23 55 -3 10 -61 106 -93 152 -52 75 -63
88 -160 185 -201 203 -489 342 -764 369 -73 7 -188 10 -239 6z"/>
</g>
</svg>
